<?xml version="1.0" encoding="UTF-8" standalone="no"?>
<!DOCTYPE svg PUBLIC "-//W3C//DTD SVG 1.1//EN" "http://www.w3.org/Graphics/SVG/1.1/DTD/svg11.dtd">
<svg width="100%" height="100%" viewBox="0 0 250 250" version="1.1" xmlns="http://www.w3.org/2000/svg" xmlns:xlink="http://www.w3.org/1999/xlink" xml:space="preserve" xmlns:serif="http://www.serif.com/" style="fill-rule:evenodd;clip-rule:evenodd;stroke-linejoin:round;stroke-miterlimit:2;">
    <g transform="matrix(0.483645,0,0,0.483645,1.06205,52.0959)">
        <path d="M120.81,80.561L217.378,80.561L217.378,88.237L129.662,88.237L129.662,146.004L212.148,146.004L212.148,153.679L129.662,153.679L129.662,217.102L218.384,217.102L218.384,224.777L120.81,224.777L120.81,80.561ZM226.029,80.561L236.29,80.561L281.757,143.984L328.23,80.561L391.441,0L287.591,150.649L341.106,224.777L330.443,224.777L281.757,157.315L232.869,224.777L222.408,224.777L276.325,150.649L226.029,80.561ZM344.928,88.237L344.928,80.561L454.976,80.561L454.976,88.237L404.277,88.237L404.277,224.777L395.425,224.777L395.425,88.237L344.928,88.237ZM0,80.561L11.065,80.561L163.646,308.884L100.592,224.777L9.254,91.468L8.852,224.777L0,224.777L0,80.561ZM454.084,214.785C452.275,214.785 450.919,213.384 450.919,211.573C450.919,209.762 452.275,208.361 454.084,208.361C455.914,208.361 457.249,209.762 457.249,211.573C457.249,213.384 455.914,214.785 454.084,214.785ZM462.782,206.335L467.519,206.335C467.583,208.9 469.456,210.625 472.212,210.625C475.291,210.625 477.035,208.771 477.035,205.3L477.035,183.31L481.858,183.31L481.858,205.321C481.858,211.573 478.241,215.174 472.255,215.174C466.636,215.174 462.782,211.681 462.782,206.335ZM488.166,206.054L492.946,206.054C493.355,209.008 496.24,210.883 500.395,210.883C504.271,210.883 507.113,208.878 507.113,206.119C507.113,203.748 505.304,202.325 501.192,201.355L497.187,200.385C491.568,199.069 489.006,196.353 489.006,191.783C489.006,186.242 493.527,182.556 500.309,182.556C506.617,182.556 511.225,186.242 511.505,191.481L506.811,191.481C506.359,188.614 503.862,186.824 500.244,186.824C496.434,186.824 493.893,188.657 493.893,191.459C493.893,193.68 495.529,194.952 499.577,195.9L503,196.741C509.373,198.229 512,200.816 512,205.494C512,211.444 507.393,215.174 500.029,215.174C493.14,215.174 488.511,211.616 488.166,206.054Z" style="fill:white;fill-rule:nonzero;"/>
    </g>
</svg>
